<svg width="17" height="17" viewBox="0 0 17 17" fill="none" xmlns="http://www.w3.org/2000/svg">
<g clip-path="url(#clip0_218_115)">
<path d="M17 8.48317C17 13.1876 13.2129 16.9916 8.50842 17C3.81238 17.0084 0 13.2045 0 8.50842C0 3.80396 3.79554 0 8.5 0C13.196 0 17 3.79554 17.0084 8.48317H17ZM5.13366 7.32178C5.00743 7.32178 4.89802 7.33861 4.78861 7.38069C4.20792 7.62475 4.06485 8.3401 4.51931 8.79455C5.31881 9.60247 6.13515 10.4104 6.93465 11.2099C7.33861 11.6139 7.83515 11.6223 8.23911 11.2099C9.04703 10.402 9.85495 9.59406 10.6545 8.79455C11.2688 8.1802 11.8832 7.57426 12.4891 6.9599C12.9436 6.49703 12.7837 5.74802 12.1777 5.53762C11.799 5.40297 11.4876 5.53762 11.2099 5.81535C10.0485 6.98515 8.88713 8.14653 7.72574 9.30792C7.56584 9.46782 7.61634 9.47624 7.44802 9.30792C6.87574 8.74406 6.31188 8.17178 5.74802 7.60792C5.57129 7.43119 5.36931 7.32178 5.12525 7.32178H5.13366Z" fill="#66C036"/>
<path d="M5.1335 7.32179C5.36915 7.32179 5.57954 7.4312 5.75628 7.60793C6.32014 8.18021 6.884 8.74407 7.45628 9.30793C7.61618 9.46783 7.5741 9.45942 7.734 9.30793C8.89538 8.14655 10.0568 6.98516 11.2182 5.81536C11.4959 5.53764 11.8073 5.4114 12.186 5.53764C12.7919 5.74803 12.9602 6.49704 12.4974 6.95991C11.8914 7.57427 11.2771 8.18863 10.6627 8.79457C9.85479 9.60249 9.04687 10.4104 8.24736 11.2099C7.8434 11.6139 7.34687 11.6055 6.94291 11.2099C6.13499 10.402 5.32707 9.60249 4.52756 8.79457C4.07311 8.34011 4.21618 7.62476 4.79687 7.38071C4.90628 7.33863 5.01568 7.32179 5.14192 7.32179H5.1335Z" fill="#FEFEFE"/>
</g>
<defs>
<clipPath id="clip0_218_115">
<rect width="17" height="17" fill="white"/>
</clipPath>
</defs>
</svg>
